<mxfile host="app.diagrams.net" agent="Mozilla/5.0 (Windows NT 10.0; Win64; x64) AppleWebKit/537.36 (KHTML, like Gecko) Chrome/130.0.0.0 Safari/537.36 Edg/130.0.0.0" version="24.8.6">
  <diagram name="페이지-1" id="VVbw2WfJ0aFX1gO4keyk">
    <mxGraphModel dx="1010" dy="918" grid="1" gridSize="10" guides="1" tooltips="1" connect="1" arrows="1" fold="1" page="1" pageScale="1" pageWidth="827" pageHeight="1169" math="0" shadow="0">
      <root>
        <mxCell id="0" />
        <mxCell id="1" parent="0" />
        <mxCell id="hwBg_N_OCi77G2AoRcbN-81" style="edgeStyle=orthogonalEdgeStyle;rounded=0;orthogonalLoop=1;jettySize=auto;html=1;exitX=0.5;exitY=0.5;exitDx=0;exitDy=0;exitPerimeter=0;entryX=0;entryY=0.5;entryDx=0;entryDy=0;" edge="1" parent="1" source="hwBg_N_OCi77G2AoRcbN-1" target="hwBg_N_OCi77G2AoRcbN-4">
          <mxGeometry relative="1" as="geometry" />
        </mxCell>
        <mxCell id="hwBg_N_OCi77G2AoRcbN-82" style="edgeStyle=orthogonalEdgeStyle;rounded=0;orthogonalLoop=1;jettySize=auto;html=1;exitX=0.5;exitY=0.5;exitDx=0;exitDy=0;exitPerimeter=0;entryX=0;entryY=0.5;entryDx=0;entryDy=0;" edge="1" parent="1" source="hwBg_N_OCi77G2AoRcbN-1" target="hwBg_N_OCi77G2AoRcbN-7">
          <mxGeometry relative="1" as="geometry" />
        </mxCell>
        <mxCell id="hwBg_N_OCi77G2AoRcbN-83" style="edgeStyle=orthogonalEdgeStyle;rounded=0;orthogonalLoop=1;jettySize=auto;html=1;exitX=0.5;exitY=0.5;exitDx=0;exitDy=0;exitPerimeter=0;entryX=0;entryY=0.5;entryDx=0;entryDy=0;" edge="1" parent="1" source="hwBg_N_OCi77G2AoRcbN-1" target="hwBg_N_OCi77G2AoRcbN-15">
          <mxGeometry relative="1" as="geometry" />
        </mxCell>
        <mxCell id="hwBg_N_OCi77G2AoRcbN-84" style="edgeStyle=orthogonalEdgeStyle;rounded=0;orthogonalLoop=1;jettySize=auto;html=1;exitX=0.5;exitY=0.5;exitDx=0;exitDy=0;exitPerimeter=0;entryX=0;entryY=0.5;entryDx=0;entryDy=0;" edge="1" parent="1" source="hwBg_N_OCi77G2AoRcbN-1" target="hwBg_N_OCi77G2AoRcbN-14">
          <mxGeometry relative="1" as="geometry" />
        </mxCell>
        <mxCell id="hwBg_N_OCi77G2AoRcbN-1" value="고객(Actor)&lt;div&gt;&lt;br&gt;&lt;/div&gt;" style="shape=umlActor;verticalLabelPosition=bottom;verticalAlign=top;html=1;" vertex="1" parent="1">
          <mxGeometry x="30" y="44" width="30" height="60" as="geometry" />
        </mxCell>
        <mxCell id="hwBg_N_OCi77G2AoRcbN-93" style="edgeStyle=orthogonalEdgeStyle;rounded=0;orthogonalLoop=1;jettySize=auto;html=1;exitX=0.5;exitY=0.5;exitDx=0;exitDy=0;exitPerimeter=0;entryX=0;entryY=0.5;entryDx=0;entryDy=0;" edge="1" parent="1" source="hwBg_N_OCi77G2AoRcbN-2" target="hwBg_N_OCi77G2AoRcbN-8">
          <mxGeometry relative="1" as="geometry" />
        </mxCell>
        <mxCell id="hwBg_N_OCi77G2AoRcbN-94" style="edgeStyle=orthogonalEdgeStyle;rounded=0;orthogonalLoop=1;jettySize=auto;html=1;exitX=0.5;exitY=0.5;exitDx=0;exitDy=0;exitPerimeter=0;entryX=0;entryY=0.5;entryDx=0;entryDy=0;" edge="1" parent="1" source="hwBg_N_OCi77G2AoRcbN-2" target="hwBg_N_OCi77G2AoRcbN-9">
          <mxGeometry relative="1" as="geometry" />
        </mxCell>
        <mxCell id="hwBg_N_OCi77G2AoRcbN-95" style="edgeStyle=orthogonalEdgeStyle;rounded=0;orthogonalLoop=1;jettySize=auto;html=1;exitX=0.5;exitY=0.5;exitDx=0;exitDy=0;exitPerimeter=0;entryX=0;entryY=0.5;entryDx=0;entryDy=0;" edge="1" parent="1" source="hwBg_N_OCi77G2AoRcbN-2" target="hwBg_N_OCi77G2AoRcbN-10">
          <mxGeometry relative="1" as="geometry" />
        </mxCell>
        <mxCell id="hwBg_N_OCi77G2AoRcbN-96" style="edgeStyle=orthogonalEdgeStyle;rounded=0;orthogonalLoop=1;jettySize=auto;html=1;exitX=0.5;exitY=0.5;exitDx=0;exitDy=0;exitPerimeter=0;entryX=0;entryY=0.5;entryDx=0;entryDy=0;" edge="1" parent="1" source="hwBg_N_OCi77G2AoRcbN-2" target="hwBg_N_OCi77G2AoRcbN-12">
          <mxGeometry relative="1" as="geometry" />
        </mxCell>
        <mxCell id="hwBg_N_OCi77G2AoRcbN-97" style="edgeStyle=orthogonalEdgeStyle;rounded=0;orthogonalLoop=1;jettySize=auto;html=1;exitX=0.5;exitY=0.5;exitDx=0;exitDy=0;exitPerimeter=0;entryX=0;entryY=0.5;entryDx=0;entryDy=0;" edge="1" parent="1" source="hwBg_N_OCi77G2AoRcbN-2" target="hwBg_N_OCi77G2AoRcbN-18">
          <mxGeometry relative="1" as="geometry" />
        </mxCell>
        <mxCell id="hwBg_N_OCi77G2AoRcbN-98" style="edgeStyle=orthogonalEdgeStyle;rounded=0;orthogonalLoop=1;jettySize=auto;html=1;exitX=0.5;exitY=0.5;exitDx=0;exitDy=0;exitPerimeter=0;entryX=0;entryY=0.5;entryDx=0;entryDy=0;" edge="1" parent="1" source="hwBg_N_OCi77G2AoRcbN-2" target="hwBg_N_OCi77G2AoRcbN-19">
          <mxGeometry relative="1" as="geometry" />
        </mxCell>
        <mxCell id="hwBg_N_OCi77G2AoRcbN-99" style="edgeStyle=orthogonalEdgeStyle;rounded=0;orthogonalLoop=1;jettySize=auto;html=1;exitX=0.5;exitY=0.5;exitDx=0;exitDy=0;exitPerimeter=0;entryX=0;entryY=0.5;entryDx=0;entryDy=0;" edge="1" parent="1" source="hwBg_N_OCi77G2AoRcbN-2" target="hwBg_N_OCi77G2AoRcbN-20">
          <mxGeometry relative="1" as="geometry" />
        </mxCell>
        <mxCell id="hwBg_N_OCi77G2AoRcbN-2" value="회원(Actor)" style="shape=umlActor;verticalLabelPosition=bottom;verticalAlign=top;html=1;" vertex="1" parent="1">
          <mxGeometry x="40" y="460" width="30" height="60" as="geometry" />
        </mxCell>
        <mxCell id="hwBg_N_OCi77G2AoRcbN-4" value="상품목록조회" style="ellipse;whiteSpace=wrap;html=1;align=center;fontStyle=4;" vertex="1" parent="1">
          <mxGeometry x="120" y="109" width="110" height="50" as="geometry" />
        </mxCell>
        <mxCell id="hwBg_N_OCi77G2AoRcbN-7" value="상품검색" style="ellipse;whiteSpace=wrap;html=1;align=center;fontStyle=4;" vertex="1" parent="1">
          <mxGeometry x="120" y="169" width="110" height="50" as="geometry" />
        </mxCell>
        <mxCell id="hwBg_N_OCi77G2AoRcbN-8" value="로그인" style="ellipse;whiteSpace=wrap;html=1;align=center;fontStyle=4;" vertex="1" parent="1">
          <mxGeometry x="121" y="450" width="110" height="50" as="geometry" />
        </mxCell>
        <mxCell id="hwBg_N_OCi77G2AoRcbN-9" value="상품리뷰등록" style="ellipse;whiteSpace=wrap;html=1;align=center;fontStyle=4;" vertex="1" parent="1">
          <mxGeometry x="121" y="530" width="110" height="50" as="geometry" />
        </mxCell>
        <mxCell id="hwBg_N_OCi77G2AoRcbN-10" value="상품리뷰수정" style="ellipse;whiteSpace=wrap;html=1;align=center;fontStyle=4;" vertex="1" parent="1">
          <mxGeometry x="121" y="590" width="110" height="50" as="geometry" />
        </mxCell>
        <mxCell id="hwBg_N_OCi77G2AoRcbN-12" value="상품리뷰삭제" style="ellipse;whiteSpace=wrap;html=1;align=center;fontStyle=4;" vertex="1" parent="1">
          <mxGeometry x="121" y="650" width="110" height="50" as="geometry" />
        </mxCell>
        <mxCell id="hwBg_N_OCi77G2AoRcbN-13" value="상품관리" style="ellipse;whiteSpace=wrap;html=1;align=center;fontStyle=4;" vertex="1" parent="1">
          <mxGeometry x="540" y="120" width="110" height="50" as="geometry" />
        </mxCell>
        <mxCell id="hwBg_N_OCi77G2AoRcbN-14" value="카페검색" style="ellipse;whiteSpace=wrap;html=1;align=center;fontStyle=4;" vertex="1" parent="1">
          <mxGeometry x="121" y="299" width="110" height="50" as="geometry" />
        </mxCell>
        <mxCell id="hwBg_N_OCi77G2AoRcbN-15" value="보드게임카페목록조회" style="ellipse;whiteSpace=wrap;html=1;align=center;fontStyle=4;" vertex="1" parent="1">
          <mxGeometry x="121" y="239" width="110" height="50" as="geometry" />
        </mxCell>
        <mxCell id="hwBg_N_OCi77G2AoRcbN-16" value="사용자인증" style="ellipse;whiteSpace=wrap;html=1;align=center;fontStyle=4;" vertex="1" parent="1">
          <mxGeometry x="360" y="535" width="110" height="50" as="geometry" />
        </mxCell>
        <mxCell id="hwBg_N_OCi77G2AoRcbN-17" value="카페상세조회" style="ellipse;whiteSpace=wrap;html=1;align=center;fontStyle=4;" vertex="1" parent="1">
          <mxGeometry x="321.86" y="256.06" width="110" height="50" as="geometry" />
        </mxCell>
        <mxCell id="hwBg_N_OCi77G2AoRcbN-18" value="카페리뷰등록" style="ellipse;whiteSpace=wrap;html=1;align=center;fontStyle=4;" vertex="1" parent="1">
          <mxGeometry x="122" y="717" width="110" height="50" as="geometry" />
        </mxCell>
        <mxCell id="hwBg_N_OCi77G2AoRcbN-19" value="카페리뷰수정" style="ellipse;whiteSpace=wrap;html=1;align=center;fontStyle=4;" vertex="1" parent="1">
          <mxGeometry x="122" y="777" width="110" height="50" as="geometry" />
        </mxCell>
        <mxCell id="hwBg_N_OCi77G2AoRcbN-20" value="카페리뷰삭제" style="ellipse;whiteSpace=wrap;html=1;align=center;fontStyle=4;" vertex="1" parent="1">
          <mxGeometry x="122" y="837" width="110" height="50" as="geometry" />
        </mxCell>
        <mxCell id="hwBg_N_OCi77G2AoRcbN-108" style="edgeStyle=orthogonalEdgeStyle;rounded=0;orthogonalLoop=1;jettySize=auto;html=1;exitX=0.5;exitY=0.5;exitDx=0;exitDy=0;exitPerimeter=0;entryX=1;entryY=0.5;entryDx=0;entryDy=0;" edge="1" parent="1" source="hwBg_N_OCi77G2AoRcbN-21" target="hwBg_N_OCi77G2AoRcbN-79">
          <mxGeometry relative="1" as="geometry" />
        </mxCell>
        <mxCell id="hwBg_N_OCi77G2AoRcbN-109" style="edgeStyle=orthogonalEdgeStyle;rounded=0;orthogonalLoop=1;jettySize=auto;html=1;exitX=0.5;exitY=0.5;exitDx=0;exitDy=0;exitPerimeter=0;entryX=1;entryY=0.5;entryDx=0;entryDy=0;" edge="1" parent="1" source="hwBg_N_OCi77G2AoRcbN-21" target="hwBg_N_OCi77G2AoRcbN-13">
          <mxGeometry relative="1" as="geometry" />
        </mxCell>
        <mxCell id="hwBg_N_OCi77G2AoRcbN-110" style="edgeStyle=orthogonalEdgeStyle;rounded=0;orthogonalLoop=1;jettySize=auto;html=1;exitX=0.5;exitY=0.5;exitDx=0;exitDy=0;exitPerimeter=0;entryX=1;entryY=0.5;entryDx=0;entryDy=0;" edge="1" parent="1" source="hwBg_N_OCi77G2AoRcbN-21" target="hwBg_N_OCi77G2AoRcbN-49">
          <mxGeometry relative="1" as="geometry" />
        </mxCell>
        <mxCell id="hwBg_N_OCi77G2AoRcbN-111" style="edgeStyle=orthogonalEdgeStyle;rounded=0;orthogonalLoop=1;jettySize=auto;html=1;exitX=0.5;exitY=0.5;exitDx=0;exitDy=0;exitPerimeter=0;entryX=1;entryY=0.5;entryDx=0;entryDy=0;" edge="1" parent="1" source="hwBg_N_OCi77G2AoRcbN-21" target="hwBg_N_OCi77G2AoRcbN-55">
          <mxGeometry relative="1" as="geometry" />
        </mxCell>
        <mxCell id="hwBg_N_OCi77G2AoRcbN-143" style="edgeStyle=orthogonalEdgeStyle;rounded=0;orthogonalLoop=1;jettySize=auto;html=1;exitX=0.5;exitY=0.5;exitDx=0;exitDy=0;exitPerimeter=0;entryX=1;entryY=0.5;entryDx=0;entryDy=0;" edge="1" parent="1" source="hwBg_N_OCi77G2AoRcbN-21" target="hwBg_N_OCi77G2AoRcbN-132">
          <mxGeometry relative="1" as="geometry" />
        </mxCell>
        <mxCell id="hwBg_N_OCi77G2AoRcbN-21" value="관리자(Actor)" style="shape=umlActor;verticalLabelPosition=bottom;verticalAlign=top;html=1;" vertex="1" parent="1">
          <mxGeometry x="750" y="44" width="30" height="60" as="geometry" />
        </mxCell>
        <mxCell id="hwBg_N_OCi77G2AoRcbN-22" value="상품상세조회" style="ellipse;whiteSpace=wrap;html=1;align=center;fontStyle=4;" vertex="1" parent="1">
          <mxGeometry x="321.86" y="138.56" width="110" height="50" as="geometry" />
        </mxCell>
        <mxCell id="hwBg_N_OCi77G2AoRcbN-23" value="등록" style="ellipse;whiteSpace=wrap;html=1;align=center;fontStyle=4;" vertex="1" parent="1">
          <mxGeometry x="510" y="200" width="50" height="50" as="geometry" />
        </mxCell>
        <mxCell id="hwBg_N_OCi77G2AoRcbN-41" style="edgeStyle=orthogonalEdgeStyle;rounded=0;orthogonalLoop=1;jettySize=auto;html=1;exitX=0.5;exitY=0;exitDx=0;exitDy=0;" edge="1" parent="1" source="hwBg_N_OCi77G2AoRcbN-24" target="hwBg_N_OCi77G2AoRcbN-13">
          <mxGeometry relative="1" as="geometry" />
        </mxCell>
        <mxCell id="hwBg_N_OCi77G2AoRcbN-24" value="수정" style="ellipse;whiteSpace=wrap;html=1;align=center;fontStyle=4;" vertex="1" parent="1">
          <mxGeometry x="570" y="200" width="50" height="50" as="geometry" />
        </mxCell>
        <mxCell id="hwBg_N_OCi77G2AoRcbN-26" value="삭제" style="ellipse;whiteSpace=wrap;html=1;align=center;fontStyle=4;" vertex="1" parent="1">
          <mxGeometry x="630" y="200" width="50" height="50" as="geometry" />
        </mxCell>
        <mxCell id="hwBg_N_OCi77G2AoRcbN-48" value="" style="shape=partialRectangle;whiteSpace=wrap;html=1;bottom=1;right=1;left=1;top=0;fillColor=none;routingCenterX=-0.5;rotation=-180;" vertex="1" parent="1">
          <mxGeometry x="535" y="185" width="120" height="15" as="geometry" />
        </mxCell>
        <mxCell id="hwBg_N_OCi77G2AoRcbN-49" value="회원관리" style="ellipse;whiteSpace=wrap;html=1;align=center;fontStyle=4;" vertex="1" parent="1">
          <mxGeometry x="540" y="470" width="110" height="50" as="geometry" />
        </mxCell>
        <mxCell id="hwBg_N_OCi77G2AoRcbN-50" value="등록" style="ellipse;whiteSpace=wrap;html=1;align=center;fontStyle=4;" vertex="1" parent="1">
          <mxGeometry x="510" y="550" width="50" height="50" as="geometry" />
        </mxCell>
        <mxCell id="hwBg_N_OCi77G2AoRcbN-51" style="edgeStyle=orthogonalEdgeStyle;rounded=0;orthogonalLoop=1;jettySize=auto;html=1;exitX=0.5;exitY=0;exitDx=0;exitDy=0;" edge="1" parent="1" source="hwBg_N_OCi77G2AoRcbN-52" target="hwBg_N_OCi77G2AoRcbN-49">
          <mxGeometry relative="1" as="geometry" />
        </mxCell>
        <mxCell id="hwBg_N_OCi77G2AoRcbN-52" value="수정" style="ellipse;whiteSpace=wrap;html=1;align=center;fontStyle=4;" vertex="1" parent="1">
          <mxGeometry x="570" y="550" width="50" height="50" as="geometry" />
        </mxCell>
        <mxCell id="hwBg_N_OCi77G2AoRcbN-53" value="삭제" style="ellipse;whiteSpace=wrap;html=1;align=center;fontStyle=4;" vertex="1" parent="1">
          <mxGeometry x="630" y="550" width="50" height="50" as="geometry" />
        </mxCell>
        <mxCell id="hwBg_N_OCi77G2AoRcbN-54" value="" style="shape=partialRectangle;whiteSpace=wrap;html=1;bottom=1;right=1;left=1;top=0;fillColor=none;routingCenterX=-0.5;rotation=-180;" vertex="1" parent="1">
          <mxGeometry x="535" y="535" width="120" height="15" as="geometry" />
        </mxCell>
        <mxCell id="hwBg_N_OCi77G2AoRcbN-55" value="카테고리관리" style="ellipse;whiteSpace=wrap;html=1;align=center;fontStyle=4;" vertex="1" parent="1">
          <mxGeometry x="540" y="630" width="110" height="50" as="geometry" />
        </mxCell>
        <mxCell id="hwBg_N_OCi77G2AoRcbN-56" value="등록" style="ellipse;whiteSpace=wrap;html=1;align=center;fontStyle=4;" vertex="1" parent="1">
          <mxGeometry x="510" y="710" width="50" height="50" as="geometry" />
        </mxCell>
        <mxCell id="hwBg_N_OCi77G2AoRcbN-57" style="edgeStyle=orthogonalEdgeStyle;rounded=0;orthogonalLoop=1;jettySize=auto;html=1;exitX=0.5;exitY=0;exitDx=0;exitDy=0;" edge="1" source="hwBg_N_OCi77G2AoRcbN-58" target="hwBg_N_OCi77G2AoRcbN-55" parent="1">
          <mxGeometry relative="1" as="geometry" />
        </mxCell>
        <mxCell id="hwBg_N_OCi77G2AoRcbN-58" value="수정" style="ellipse;whiteSpace=wrap;html=1;align=center;fontStyle=4;" vertex="1" parent="1">
          <mxGeometry x="570" y="710" width="50" height="50" as="geometry" />
        </mxCell>
        <mxCell id="hwBg_N_OCi77G2AoRcbN-59" value="삭제" style="ellipse;whiteSpace=wrap;html=1;align=center;fontStyle=4;" vertex="1" parent="1">
          <mxGeometry x="630" y="710" width="50" height="50" as="geometry" />
        </mxCell>
        <mxCell id="hwBg_N_OCi77G2AoRcbN-60" value="" style="shape=partialRectangle;whiteSpace=wrap;html=1;bottom=1;right=1;left=1;top=0;fillColor=none;routingCenterX=-0.5;rotation=-180;" vertex="1" parent="1">
          <mxGeometry x="535" y="695" width="120" height="15" as="geometry" />
        </mxCell>
        <mxCell id="hwBg_N_OCi77G2AoRcbN-77" value="회원가입" style="ellipse;whiteSpace=wrap;html=1;align=center;fontStyle=4;" vertex="1" parent="1">
          <mxGeometry x="121" y="40" width="110" height="50" as="geometry" />
        </mxCell>
        <mxCell id="hwBg_N_OCi77G2AoRcbN-78" value="카페예약" style="ellipse;whiteSpace=wrap;html=1;align=center;fontStyle=4;" vertex="1" parent="1">
          <mxGeometry x="230" y="370" width="110" height="50" as="geometry" />
        </mxCell>
        <mxCell id="hwBg_N_OCi77G2AoRcbN-79" value="로그인" style="ellipse;whiteSpace=wrap;html=1;align=center;fontStyle=4;" vertex="1" parent="1">
          <mxGeometry x="540" y="40" width="110" height="50" as="geometry" />
        </mxCell>
        <mxCell id="hwBg_N_OCi77G2AoRcbN-80" style="edgeStyle=orthogonalEdgeStyle;rounded=0;orthogonalLoop=1;jettySize=auto;html=1;exitX=0.5;exitY=0.5;exitDx=0;exitDy=0;exitPerimeter=0;entryX=-0.03;entryY=0.687;entryDx=0;entryDy=0;entryPerimeter=0;" edge="1" parent="1" source="hwBg_N_OCi77G2AoRcbN-1" target="hwBg_N_OCi77G2AoRcbN-77">
          <mxGeometry relative="1" as="geometry" />
        </mxCell>
        <mxCell id="hwBg_N_OCi77G2AoRcbN-85" value="Extends" style="endArrow=block;endSize=16;endFill=0;html=1;rounded=0;exitX=0;exitY=0.5;exitDx=0;exitDy=0;entryX=1;entryY=0.5;entryDx=0;entryDy=0;" edge="1" parent="1" source="hwBg_N_OCi77G2AoRcbN-22" target="hwBg_N_OCi77G2AoRcbN-4">
          <mxGeometry x="-0.2699" y="-4" width="160" relative="1" as="geometry">
            <mxPoint x="440" y="450" as="sourcePoint" />
            <mxPoint x="232" y="120" as="targetPoint" />
            <Array as="points" />
            <mxPoint as="offset" />
          </mxGeometry>
        </mxCell>
        <mxCell id="hwBg_N_OCi77G2AoRcbN-86" value="Extends" style="endArrow=block;endSize=16;endFill=0;html=1;rounded=0;exitX=0;exitY=0.5;exitDx=0;exitDy=0;entryX=1;entryY=0.5;entryDx=0;entryDy=0;" edge="1" parent="1" source="hwBg_N_OCi77G2AoRcbN-22" target="hwBg_N_OCi77G2AoRcbN-7">
          <mxGeometry x="0.0065" width="160" relative="1" as="geometry">
            <mxPoint x="300" y="125" as="sourcePoint" />
            <mxPoint x="240" y="144" as="targetPoint" />
            <Array as="points" />
            <mxPoint x="1" as="offset" />
          </mxGeometry>
        </mxCell>
        <mxCell id="hwBg_N_OCi77G2AoRcbN-89" value="Extends" style="endArrow=block;endSize=16;endFill=0;html=1;rounded=0;exitX=0;exitY=0.5;exitDx=0;exitDy=0;entryX=1;entryY=0.5;entryDx=0;entryDy=0;" edge="1" parent="1" source="hwBg_N_OCi77G2AoRcbN-17" target="hwBg_N_OCi77G2AoRcbN-15">
          <mxGeometry width="160" relative="1" as="geometry">
            <mxPoint x="290" y="250.5" as="sourcePoint" />
            <mxPoint x="230" y="219.5" as="targetPoint" />
            <Array as="points" />
          </mxGeometry>
        </mxCell>
        <mxCell id="hwBg_N_OCi77G2AoRcbN-91" value="Extends" style="endArrow=block;endSize=16;endFill=0;html=1;rounded=0;entryX=1;entryY=0.5;entryDx=0;entryDy=0;exitX=0;exitY=0.5;exitDx=0;exitDy=0;" edge="1" parent="1" source="hwBg_N_OCi77G2AoRcbN-17" target="hwBg_N_OCi77G2AoRcbN-14">
          <mxGeometry width="160" relative="1" as="geometry">
            <mxPoint x="290" y="280" as="sourcePoint" />
            <mxPoint x="241" y="274" as="targetPoint" />
            <Array as="points" />
          </mxGeometry>
        </mxCell>
        <mxCell id="hwBg_N_OCi77G2AoRcbN-102" value="Extends" style="endArrow=block;endSize=16;endFill=0;html=1;rounded=0;entryX=0.5;entryY=1;entryDx=0;entryDy=0;exitX=0.5;exitY=0;exitDx=0;exitDy=0;" edge="1" parent="1" source="hwBg_N_OCi77G2AoRcbN-78" target="hwBg_N_OCi77G2AoRcbN-17">
          <mxGeometry width="160" relative="1" as="geometry">
            <mxPoint x="276.86" y="347.56" as="sourcePoint" />
            <mxPoint x="436.86" y="347.56" as="targetPoint" />
          </mxGeometry>
        </mxCell>
        <mxCell id="hwBg_N_OCi77G2AoRcbN-103" value="" style="endArrow=classic;html=1;rounded=0;entryX=0.5;entryY=0;entryDx=0;entryDy=0;exitX=0.5;exitY=1;exitDx=0;exitDy=0;" edge="1" parent="1" source="hwBg_N_OCi77G2AoRcbN-78" target="hwBg_N_OCi77G2AoRcbN-16">
          <mxGeometry relative="1" as="geometry">
            <mxPoint x="350" y="490" as="sourcePoint" />
            <mxPoint x="570" y="450" as="targetPoint" />
          </mxGeometry>
        </mxCell>
        <mxCell id="hwBg_N_OCi77G2AoRcbN-104" value="Include" style="edgeLabel;resizable=0;html=1;;align=center;verticalAlign=middle;" connectable="0" vertex="1" parent="hwBg_N_OCi77G2AoRcbN-103">
          <mxGeometry relative="1" as="geometry" />
        </mxCell>
        <mxCell id="hwBg_N_OCi77G2AoRcbN-114" value="" style="endArrow=classic;html=1;rounded=0;exitX=1;exitY=0.5;exitDx=0;exitDy=0;entryX=0;entryY=0.5;entryDx=0;entryDy=0;" edge="1" parent="1" source="hwBg_N_OCi77G2AoRcbN-9" target="hwBg_N_OCi77G2AoRcbN-16">
          <mxGeometry relative="1" as="geometry">
            <mxPoint x="241" y="485" as="sourcePoint" />
            <mxPoint x="360" y="620" as="targetPoint" />
          </mxGeometry>
        </mxCell>
        <mxCell id="hwBg_N_OCi77G2AoRcbN-115" value="Include" style="edgeLabel;resizable=0;html=1;;align=center;verticalAlign=middle;" connectable="0" vertex="1" parent="hwBg_N_OCi77G2AoRcbN-114">
          <mxGeometry relative="1" as="geometry" />
        </mxCell>
        <mxCell id="hwBg_N_OCi77G2AoRcbN-116" value="" style="endArrow=classic;html=1;rounded=0;exitX=1;exitY=0.5;exitDx=0;exitDy=0;entryX=0;entryY=0.5;entryDx=0;entryDy=0;" edge="1" parent="1" source="hwBg_N_OCi77G2AoRcbN-10" target="hwBg_N_OCi77G2AoRcbN-16">
          <mxGeometry relative="1" as="geometry">
            <mxPoint x="241" y="565" as="sourcePoint" />
            <mxPoint x="370" y="630" as="targetPoint" />
          </mxGeometry>
        </mxCell>
        <mxCell id="hwBg_N_OCi77G2AoRcbN-117" value="Include" style="edgeLabel;resizable=0;html=1;;align=center;verticalAlign=middle;" connectable="0" vertex="1" parent="hwBg_N_OCi77G2AoRcbN-116">
          <mxGeometry relative="1" as="geometry" />
        </mxCell>
        <mxCell id="hwBg_N_OCi77G2AoRcbN-118" value="" style="endArrow=classic;html=1;rounded=0;exitX=1;exitY=0.5;exitDx=0;exitDy=0;entryX=-0.021;entryY=0.66;entryDx=0;entryDy=0;entryPerimeter=0;" edge="1" parent="1" source="hwBg_N_OCi77G2AoRcbN-12" target="hwBg_N_OCi77G2AoRcbN-16">
          <mxGeometry relative="1" as="geometry">
            <mxPoint x="251" y="575" as="sourcePoint" />
            <mxPoint x="380" y="640" as="targetPoint" />
          </mxGeometry>
        </mxCell>
        <mxCell id="hwBg_N_OCi77G2AoRcbN-119" value="Include" style="edgeLabel;resizable=0;html=1;;align=center;verticalAlign=middle;" connectable="0" vertex="1" parent="hwBg_N_OCi77G2AoRcbN-118">
          <mxGeometry relative="1" as="geometry" />
        </mxCell>
        <mxCell id="hwBg_N_OCi77G2AoRcbN-120" value="" style="endArrow=classic;html=1;rounded=0;exitX=1;exitY=0.5;exitDx=0;exitDy=0;entryX=0;entryY=0.5;entryDx=0;entryDy=0;" edge="1" parent="1" source="hwBg_N_OCi77G2AoRcbN-18" target="hwBg_N_OCi77G2AoRcbN-16">
          <mxGeometry relative="1" as="geometry">
            <mxPoint x="241" y="685" as="sourcePoint" />
            <mxPoint x="367" y="633" as="targetPoint" />
          </mxGeometry>
        </mxCell>
        <mxCell id="hwBg_N_OCi77G2AoRcbN-121" value="Include" style="edgeLabel;resizable=0;html=1;;align=center;verticalAlign=middle;" connectable="0" vertex="1" parent="hwBg_N_OCi77G2AoRcbN-120">
          <mxGeometry relative="1" as="geometry" />
        </mxCell>
        <mxCell id="hwBg_N_OCi77G2AoRcbN-122" value="" style="endArrow=classic;html=1;rounded=0;exitX=1;exitY=0.5;exitDx=0;exitDy=0;entryX=-0.045;entryY=0.7;entryDx=0;entryDy=0;entryPerimeter=0;" edge="1" parent="1" source="hwBg_N_OCi77G2AoRcbN-19" target="hwBg_N_OCi77G2AoRcbN-16">
          <mxGeometry relative="1" as="geometry">
            <mxPoint x="242" y="752" as="sourcePoint" />
            <mxPoint x="369" y="625" as="targetPoint" />
          </mxGeometry>
        </mxCell>
        <mxCell id="hwBg_N_OCi77G2AoRcbN-123" value="Include" style="edgeLabel;resizable=0;html=1;;align=center;verticalAlign=middle;" connectable="0" vertex="1" parent="hwBg_N_OCi77G2AoRcbN-122">
          <mxGeometry relative="1" as="geometry" />
        </mxCell>
        <mxCell id="hwBg_N_OCi77G2AoRcbN-124" value="" style="endArrow=classic;html=1;rounded=0;exitX=1;exitY=0.5;exitDx=0;exitDy=0;entryX=-0.015;entryY=0.647;entryDx=0;entryDy=0;entryPerimeter=0;" edge="1" parent="1" source="hwBg_N_OCi77G2AoRcbN-20" target="hwBg_N_OCi77G2AoRcbN-16">
          <mxGeometry relative="1" as="geometry">
            <mxPoint x="242" y="812" as="sourcePoint" />
            <mxPoint x="364" y="635" as="targetPoint" />
          </mxGeometry>
        </mxCell>
        <mxCell id="hwBg_N_OCi77G2AoRcbN-125" value="Include" style="edgeLabel;resizable=0;html=1;;align=center;verticalAlign=middle;" connectable="0" vertex="1" parent="hwBg_N_OCi77G2AoRcbN-124">
          <mxGeometry relative="1" as="geometry" />
        </mxCell>
        <mxCell id="hwBg_N_OCi77G2AoRcbN-126" value="" style="endArrow=classic;html=1;rounded=0;entryX=0.5;entryY=0;entryDx=0;entryDy=0;exitX=0;exitY=0.5;exitDx=0;exitDy=0;" edge="1" parent="1" source="hwBg_N_OCi77G2AoRcbN-13" target="hwBg_N_OCi77G2AoRcbN-16">
          <mxGeometry relative="1" as="geometry">
            <mxPoint x="387" y="449" as="sourcePoint" />
            <mxPoint x="424" y="600" as="targetPoint" />
          </mxGeometry>
        </mxCell>
        <mxCell id="hwBg_N_OCi77G2AoRcbN-127" value="Include" style="edgeLabel;resizable=0;html=1;;align=center;verticalAlign=middle;" connectable="0" vertex="1" parent="hwBg_N_OCi77G2AoRcbN-126">
          <mxGeometry relative="1" as="geometry" />
        </mxCell>
        <mxCell id="hwBg_N_OCi77G2AoRcbN-128" value="" style="endArrow=classic;html=1;rounded=0;entryX=0.5;entryY=0;entryDx=0;entryDy=0;exitX=0;exitY=0.5;exitDx=0;exitDy=0;" edge="1" parent="1" source="hwBg_N_OCi77G2AoRcbN-49" target="hwBg_N_OCi77G2AoRcbN-16">
          <mxGeometry relative="1" as="geometry">
            <mxPoint x="550" y="155" as="sourcePoint" />
            <mxPoint x="424" y="600" as="targetPoint" />
          </mxGeometry>
        </mxCell>
        <mxCell id="hwBg_N_OCi77G2AoRcbN-129" value="Include" style="edgeLabel;resizable=0;html=1;;align=center;verticalAlign=middle;" connectable="0" vertex="1" parent="hwBg_N_OCi77G2AoRcbN-128">
          <mxGeometry relative="1" as="geometry" />
        </mxCell>
        <mxCell id="hwBg_N_OCi77G2AoRcbN-130" value="" style="endArrow=classic;html=1;rounded=0;entryX=0.5;entryY=0;entryDx=0;entryDy=0;exitX=0;exitY=0.5;exitDx=0;exitDy=0;" edge="1" parent="1" source="hwBg_N_OCi77G2AoRcbN-55" target="hwBg_N_OCi77G2AoRcbN-16">
          <mxGeometry relative="1" as="geometry">
            <mxPoint x="550" y="325" as="sourcePoint" />
            <mxPoint x="424" y="600" as="targetPoint" />
          </mxGeometry>
        </mxCell>
        <mxCell id="hwBg_N_OCi77G2AoRcbN-131" value="Include" style="edgeLabel;resizable=0;html=1;;align=center;verticalAlign=middle;" connectable="0" vertex="1" parent="hwBg_N_OCi77G2AoRcbN-130">
          <mxGeometry relative="1" as="geometry" />
        </mxCell>
        <mxCell id="hwBg_N_OCi77G2AoRcbN-132" value="보드게임카페관리" style="ellipse;whiteSpace=wrap;html=1;align=center;fontStyle=4;" vertex="1" parent="1">
          <mxGeometry x="540" y="280" width="110" height="50" as="geometry" />
        </mxCell>
        <mxCell id="hwBg_N_OCi77G2AoRcbN-133" value="등록" style="ellipse;whiteSpace=wrap;html=1;align=center;fontStyle=4;" vertex="1" parent="1">
          <mxGeometry x="510" y="360" width="50" height="50" as="geometry" />
        </mxCell>
        <mxCell id="hwBg_N_OCi77G2AoRcbN-134" style="edgeStyle=orthogonalEdgeStyle;rounded=0;orthogonalLoop=1;jettySize=auto;html=1;exitX=0.5;exitY=0;exitDx=0;exitDy=0;" edge="1" source="hwBg_N_OCi77G2AoRcbN-135" target="hwBg_N_OCi77G2AoRcbN-132" parent="1">
          <mxGeometry relative="1" as="geometry" />
        </mxCell>
        <mxCell id="hwBg_N_OCi77G2AoRcbN-135" value="수정" style="ellipse;whiteSpace=wrap;html=1;align=center;fontStyle=4;" vertex="1" parent="1">
          <mxGeometry x="570" y="360" width="50" height="50" as="geometry" />
        </mxCell>
        <mxCell id="hwBg_N_OCi77G2AoRcbN-136" value="삭제" style="ellipse;whiteSpace=wrap;html=1;align=center;fontStyle=4;" vertex="1" parent="1">
          <mxGeometry x="630" y="360" width="50" height="50" as="geometry" />
        </mxCell>
        <mxCell id="hwBg_N_OCi77G2AoRcbN-137" value="" style="shape=partialRectangle;whiteSpace=wrap;html=1;bottom=1;right=1;left=1;top=0;fillColor=none;routingCenterX=-0.5;rotation=-180;" vertex="1" parent="1">
          <mxGeometry x="535" y="345" width="120" height="15" as="geometry" />
        </mxCell>
        <mxCell id="hwBg_N_OCi77G2AoRcbN-139" value="" style="endArrow=classic;html=1;rounded=0;entryX=0.5;entryY=0;entryDx=0;entryDy=0;exitX=0;exitY=0.5;exitDx=0;exitDy=0;" edge="1" parent="1" source="hwBg_N_OCi77G2AoRcbN-132" target="hwBg_N_OCi77G2AoRcbN-16">
          <mxGeometry relative="1" as="geometry">
            <mxPoint x="550" y="155" as="sourcePoint" />
            <mxPoint x="424" y="600" as="targetPoint" />
          </mxGeometry>
        </mxCell>
        <mxCell id="hwBg_N_OCi77G2AoRcbN-140" value="Include" style="edgeLabel;resizable=0;html=1;;align=center;verticalAlign=middle;" connectable="0" vertex="1" parent="hwBg_N_OCi77G2AoRcbN-139">
          <mxGeometry relative="1" as="geometry" />
        </mxCell>
        <mxCell id="hwBg_N_OCi77G2AoRcbN-141" value="" style="endArrow=classic;html=1;rounded=0;entryX=1;entryY=0.5;entryDx=0;entryDy=0;exitX=0;exitY=0.5;exitDx=0;exitDy=0;" edge="1" parent="1" source="hwBg_N_OCi77G2AoRcbN-78" target="hwBg_N_OCi77G2AoRcbN-8">
          <mxGeometry relative="1" as="geometry">
            <mxPoint x="387" y="449" as="sourcePoint" />
            <mxPoint x="424" y="690" as="targetPoint" />
          </mxGeometry>
        </mxCell>
        <mxCell id="hwBg_N_OCi77G2AoRcbN-142" value="Include" style="edgeLabel;resizable=0;html=1;;align=center;verticalAlign=middle;" connectable="0" vertex="1" parent="hwBg_N_OCi77G2AoRcbN-141">
          <mxGeometry relative="1" as="geometry" />
        </mxCell>
        <mxCell id="hwBg_N_OCi77G2AoRcbN-144" value="회원(Actor)" style="shape=umlActor;verticalLabelPosition=bottom;verticalAlign=top;html=1;" vertex="1" parent="1">
          <mxGeometry x="384" y="365" width="30" height="60" as="geometry" />
        </mxCell>
      </root>
    </mxGraphModel>
  </diagram>
</mxfile>
